<?xml version="1.0" standalone="no"?>
<!DOCTYPE svg PUBLIC "-//W3C//DTD SVG 20010904//EN"
 "http://www.w3.org/TR/2001/REC-SVG-20010904/DTD/svg10.dtd">
<svg version="1.0" xmlns="http://www.w3.org/2000/svg"
 width="500.000000pt" height="500.000000pt" viewBox="0 0 500.000000 500.000000"
 preserveAspectRatio="xMidYMid meet">

<g transform="translate(0.000000,500.000000) scale(0.100000,-0.100000)"
fill="#000000" stroke="none">
<path d="M2633 3488 c-33 -16 -28 -31 7 -23 19 4 37 2 46 -6 22 -18 30 -2 9
21 -20 22 -30 24 -62 8z"/>
<path d="M2434 3403 c3 -16 8 -59 11 -98 l5 -70 -83 88 c-46 48 -89 87 -96 87
-9 0 -11 -18 -5 -72 12 -124 19 -163 29 -158 12 6 12 19 2 115 l-8 70 90 -89
c50 -50 93 -87 97 -83 4 3 1 58 -6 122 -9 86 -16 115 -26 115 -10 0 -13 -8
-10 -27z"/>
<path d="M2566 3378 c-3 -29 -7 -84 -8 -123 l-3 -70 75 -8 c79 -7 105 -4 95
13 -3 5 -37 10 -76 10 l-69 0 0 45 0 45 60 0 c33 0 60 4 60 9 0 9 -48 21 -87
21 -22 0 -24 3 -21 43 l3 42 73 -4 c43 -2 72 1 72 7 0 13 -49 22 -116 22 l-53
0 -5 -52z"/>
<path d="M2826 3381 c-27 -30 -17 -72 24 -98 72 -45 84 -67 54 -97 -25 -25
-63 -19 -94 14 -30 32 -49 25 -30 -10 15 -27 42 -40 88 -40 47 0 72 23 72 68
0 32 -17 50 -79 84 -19 10 -31 25 -31 37 0 44 76 50 104 9 8 -11 20 -18 26
-16 8 2 2 15 -15 36 -21 26 -34 32 -64 32 -25 0 -44 -7 -55 -19z"/>
<path d="M2071 3370 c-35 -11 -65 -21 -68 -24 -4 -4 54 -227 62 -234 4 -5 126
28 148 39 39 22 3 26 -61 8 -37 -10 -68 -19 -69 -19 -1 0 -7 16 -13 36 -14 41
-10 46 48 63 23 6 42 16 42 21 0 13 -16 12 -64 -1 -43 -12 -51 -7 -61 38 l-6
32 70 21 c39 11 71 25 71 30 0 14 -26 11 -99 -10z"/>
<path d="M3016 3234 c-35 -106 -40 -143 -17 -118 8 8 69 194 71 219 1 5 -2 11
-7 12 -5 2 -26 -49 -47 -113z"/>
<path d="M1833 3285 c-48 -20 -75 -70 -70 -124 6 -56 34 -92 84 -110 49 -18
87 -9 125 29 28 29 29 29 13 67 -23 54 -28 57 -70 35 -23 -11 -34 -22 -27 -26
7 -4 21 -2 33 4 24 14 35 6 44 -32 6 -22 2 -30 -20 -44 -87 -57 -197 44 -149
137 17 34 42 49 83 49 34 0 49 15 25 24 -22 9 -35 7 -71 -9z"/>
<path d="M3164 3282 c-11 -7 -34 -46 -34 -57 0 -3 21 -28 46 -55 37 -40 45
-54 40 -74 -3 -14 -15 -28 -26 -31 -28 -9 -84 25 -88 53 -5 32 -24 27 -20 -5
3 -31 57 -73 93 -73 31 0 63 29 71 63 6 24 0 34 -41 71 -49 45 -55 69 -22 90
22 14 67 -9 82 -42 17 -39 35 -19 19 23 -13 32 -91 57 -120 37z"/>
<path d="M1670 2983 c-154 -170 -244 -353 -290 -590 -22 -114 -26 -188 -10
-178 6 3 10 23 10 44 0 62 28 210 56 296 50 153 124 279 246 417 38 43 65 78
59 78 -5 0 -37 -30 -71 -67z"/>
<path d="M3270 3046 c0 -5 26 -37 59 -71 160 -172 270 -407 296 -633 4 -34 11
-65 16 -68 12 -7 11 10 -6 109 -32 186 -107 362 -216 506 -56 75 -149 173
-149 157z"/>
<path d="M1962 2610 c-291 -88 -393 -419 -196 -630 149 -159 380 -182 570 -57
67 43 179 159 299 306 175 215 244 265 370 264 86 -1 145 -24 198 -77 74 -73
98 -155 72 -244 -22 -75 -69 -131 -141 -167 -50 -25 -71 -30 -134 -30 -101 0
-179 37 -275 128 l-70 67 -23 -28 c-64 -76 -65 -67 18 -145 171 -159 367 -197
547 -106 75 38 155 119 184 186 66 154 37 305 -81 424 -64 64 -97 84 -189 110
-208 60 -358 -24 -611 -340 -102 -127 -182 -209 -236 -244 -180 -113 -406 -42
-458 144 -42 147 56 290 217 317 122 21 190 -8 313 -134 l91 -93 36 48 c20 27
37 53 37 58 0 12 -154 161 -198 192 -91 63 -232 84 -340 51z"/>
<path d="M1620 1595 l0 -115 75 0 c43 0 75 4 75 10 0 6 -28 10 -65 10 l-65 0
0 45 0 45 50 0 c28 0 50 5 50 10 0 6 -22 10 -50 10 l-50 0 0 40 0 40 65 0 c37
0 65 4 65 10 0 6 -32 10 -75 10 l-75 0 0 -115z"/>
<path d="M1827 1692 c-10 -10 -17 -28 -17 -40 0 -25 44 -62 74 -62 49 0 65
-63 21 -80 -27 -10 -51 -5 -78 18 -27 24 -33 5 -7 -23 29 -30 89 -34 112 -7
42 47 22 97 -47 116 -46 13 -65 37 -46 60 17 21 60 20 83 -1 25 -22 36 -8 13
17 -24 26 -85 27 -108 2z"/>
<path d="M1970 1700 c0 -5 18 -10 40 -10 l40 0 0 -105 c0 -63 4 -105 10 -105
6 0 10 42 10 105 l0 105 40 0 c22 0 40 5 40 10 0 6 -37 10 -90 10 -53 0 -90
-4 -90 -10z"/>
<path d="M2190 1621 c0 -105 13 -129 75 -138 33 -4 45 -1 68 21 26 24 27 30
27 116 0 53 -4 90 -10 90 -6 0 -10 -35 -10 -84 0 -62 -4 -89 -15 -100 -24 -23
-52 -28 -82 -14 -27 13 -28 16 -31 106 -4 118 -22 121 -22 3z"/>
<path d="M2420 1595 l0 -115 51 0 c45 0 55 4 85 34 27 27 34 42 34 75 0 82
-40 121 -125 121 l-45 0 0 -115z m103 84 c49 -22 62 -100 25 -144 -17 -18 -34
-26 -63 -28 l-40 -2 -3 93 -3 92 30 0 c17 0 41 -5 54 -11z"/>
<path d="M2652 1605 c-44 -111 -48 -125 -33 -125 5 0 12 14 16 30 6 29 8 30
65 30 56 0 58 -1 69 -30 12 -35 36 -42 25 -8 -17 56 -83 203 -91 205 -5 2 -28
-44 -51 -102z m79 -2 l18 -43 -45 0 c-50 0 -50 0 -16 79 10 24 17 31 20 21 3
-8 13 -34 23 -57z"/>
<path d="M2840 1596 c0 -138 18 -158 22 -25 l3 91 65 -90 c36 -50 68 -91 73
-91 4 -1 7 51 7 114 0 70 -4 115 -10 115 -6 0 -10 -37 -10 -92 l0 -92 -66 89
c-36 50 -70 92 -75 93 -5 2 -9 -47 -9 -112z"/>
<path d="M3050 1700 c0 -5 16 -10 35 -10 l34 0 3 -100 c4 -133 23 -133 23 0
l0 100 38 0 c20 0 37 5 37 10 0 6 -35 10 -85 10 -50 0 -85 -4 -85 -10z"/>
<path d="M3260 1595 c0 -70 4 -115 10 -115 6 0 10 45 10 115 0 70 -4 115 -10
115 -6 0 -10 -45 -10 -115z"/>
<path d="M3340 1595 l0 -115 75 0 c91 0 101 18 13 22 l-63 3 -3 103 c-4 141
-22 131 -22 -13z"/>
</g>
</svg>
